<svg id="Слой_1" data-name="Слой 1" xmlns="http://www.w3.org/2000/svg" viewBox="0 0 119.68 176.51"><defs><style>.cls-1,.cls-2{fill:#063487;}.cls-1{fill-rule:evenodd;}</style></defs><path class="cls-1" d="M25.28,150.51,52,114.57C58.39,106,59,98.57,59,95.45c0-13.12-9.5-28.36-29.64-28.36C12.32,67.09,0,79.08,0,95.7c0,15.5,11.29,27.49,27.72,27.49a25.54,25.54,0,0,0,7.57-1.12l-21,28.47,11,0Zm4.36-35.82c-11.67,0-20.15-8.12-20.15-19.24s8.22-19.87,20-19.87,20,8.75,20,19.87C49.53,106.32,41.32,114.69,29.64,114.69Z"/><path class="cls-1" d="M54,38.54c-1,.4-2.89,1.47-3.85,2s-1,.55-1,5.06,0,13.5,0,18,0,4.53.44,4.29,1.34-.75,1.8-1,.47-.21.47-4,0-11.46,0-15.28,0-3.83.53-4.15,1.69-1,2.25-1.31.52-.41.5-.93,0-1.51-.05-2.15-.12-.91-1.1-.52ZM48.5,26.9c-.15.14-.13.38-.12,2s0,4.69,0,6.24,0,1.62.32,1.47A4.23,4.23,0,0,0,50,35.77c.3-.35.28-.69.31-1.35s.09-1.63.08-2.85A20.42,20.42,0,0,0,50.08,28c-.18-.86-.47-1.1-.77-1.2a.93.93,0,0,0-.81.09ZM49,24.82a4.26,4.26,0,0,1,1.5.05c.51.15,1,.5,1.32,2.42a37.75,37.75,0,0,1,.4,7.36c-.15,2-.68,2.39-1.57,2.94a17.32,17.32,0,0,1-3.29,1.61l-.27.1c-.72.3-.49.36-.52-3.07,0-3.82-.14-9.14-.12-12.34s.11-3.56,1-4.28S50.25,17.8,51,17.84s.49,1.18-.18,1.91a10.34,10.34,0,0,1-2.28,1.42,1.7,1.7,0,0,0-.7,1.56,4.47,4.47,0,0,0,.26,1.81c.18.38.47.33.9.28ZM33.37,19.39c-1.83,1-3.65,1.93-4.56,2.38s-.89.41-.88,5.3,0,14.72,0,19.67-.05,5,1.19,4.43,3.76-1.94,5.06-2.68,1.39-.91,1.24-1.31a4,4,0,0,0-.82-1.3c-.29-.28-.52-.21-1.08.06s-1.49.76-2,1-.56.3-.6-3.52,0-11.54-.06-15.45,0-4,.44-4.32,1.43-.82,1.94-1.11.55-.35.57-.83a11.05,11.05,0,0,0-.06-1.83c-.07-.47-.23-.48-.38-.5Zm3.26,26.55c.51-.28,1.52-.86,2-1.22s.56-.5.58-4.68,0-12.4,0-16.56,0-4.27.39-4.57a13,13,0,0,1,1.57-1c.38-.2.37-.09.36,3s0,9.18,0,13.28,0,6.24,0,7.31,0,1.1.5.81l2.1-1.2c.54-.3.54-.3.54-.33V36.26c0-4.51,0-13.5-.06-18s-.12-4.57-.56-4.57a5.46,5.46,0,0,0-2.65.79A42.68,42.68,0,0,0,37,17.41c-1,.75-1,.79-1,5.47s0,14,0,18.66,0,4.68.54,4.4ZM85.45,23.13c0-.2.08-.36.45-.53a7.36,7.36,0,0,1,1.41-.4c.4-.08.51,0,.57,2.68s.06,8.15.12,10.9.13,2.85.37,2.85a2.88,2.88,0,0,0,.94-.24,6.65,6.65,0,0,0,.86-.44c.18-.1.21-.14.23-2.89s0-8.24,0-11-.06-2.74.41-2.87,1.45-.38,2-.46.53,0,.55,4.61,0,13.69,0,18.35,0,4.88-1.18,5.65a40.64,40.64,0,0,1-5,2.72c-1.42.61-1.87.49-2.1.18a2,2,0,0,1-.19-1.16c0-.37.11-.61,1.08-1.26s2.85-1.7,3.78-2.3.94-.75.94-1.69,0-2.67,0-3.62-.17-1.14-.28-1.26a.28.28,0,0,0-.34-.13c-.13,0-.3.21-.88.57a9.75,9.75,0,0,1-2.25,1.09c-.69.17-1.07,0-1.26-.63s-.19-1.56-.19-4.62v-11c0-2.71,0-3,0-3.16Zm-3.71,1.11c1.65-.8,1.65-.83,1.65-.15s0,2.13,0,2.84,0,.71-.55,1-1.5.84-2,1.14-.52.34-.52,4.61,0,12.76,0,17,.06,4.25-.31,4.46-1.14.65-1.51.89-.37.3-.38-3.89S78.06,39.56,78,35.24s0-4.57-.3-4.63A3,3,0,0,0,76.3,31c-.65.29-1.43.72-1.88,1s-.54.33-.66-.33-.26-2-.31-2.75,0-.73,1.68-1.52,5-2.34,6.61-3.13Zm-25,17.93c-.07,4.81-.07,14.26-.07,19s0,4.79.41,4.58,1.27-.69,1.68-.93.39-.25.39-3.38,0-9.41.06-12.58.2-3.25.33-3.34.24-.21,1,1.52,2.31,5.32,3.07,7.12.74,1.79,1.41-.33,2-6.36,2.78-8.46,1-2.09,1.08-2,.11.31.11,3.11,0,8.2,0,10.91.06,2.73.55,2.48,1.45-.79,1.93-1,.47-.2.47-5.12V34c0-4.93,0-4.9-.22-4.87a2.78,2.78,0,0,0-1,.18c-.4.18-.75.52-1.74,3.65s-2.62,9-3.46,12-.91,2.93-1,2.93-.31,0-1.17-2-2.35-6-3.12-8-.81-2-1.21-1.8-1.16.63-1.62.93S56.8,37.37,56.73,42.17Z"/><path class="cls-1" d="M64.51,168.88c-.44.46-.89.9-1.33,1.32s-.75.71-1.11,1h0c-.33.28-.66.55-1,.8s-.59.44-.85.61-.51.32-.74.44h0a4,4,0,0,1-.58.26,2.09,2.09,0,0,1-.46.12,1.59,1.59,0,0,1-.38,0,2.31,2.31,0,0,1-.43-.08,2.84,2.84,0,0,1-.54-.21,5.62,5.62,0,0,1-.74-.46,12.09,12.09,0,0,1-1.08-.89c-.42-.38-.89-.84-1.43-1.39s-1.28-1.36-2-2.17-1.44-1.65-2.2-2.56-1.43-1.75-2.14-2.67-1.31-1.71-1.92-2.56-1.29-1.83-1.92-2.78-1.24-2-1.83-3-1.2-2.08-1.85-3.29-1.34-2.5-2-3.85-1.33-2.63-2-4.06h-.23l-2,2.4c.52,1,1,2.06,1.53,3,.75,1.46,1.43,2.76,2.06,3.91s1.26,2.29,1.91,3.38,1.24,2.06,1.88,3,1.3,1.94,2,2.92,1.32,1.79,2,2.66,1.45,1.84,2.19,2.73,1.54,1.82,2.27,2.65,1.47,1.62,2.09,2.25,1.11,1.12,1.61,1.57.93.79,1.31,1.08a8.78,8.78,0,0,0,1.2.73,5.52,5.52,0,0,0,1.09.42h0a5.83,5.83,0,0,0,1.08.19,4.9,4.9,0,0,0,1.08-.06,5.27,5.27,0,0,0,1-.26,9.28,9.28,0,0,0,1-.44c.32-.17.65-.36,1-.58s.7-.48,1.06-.76.74-.58,1.13-.92.79-.7,1.23-1.13.93-.91,1.42-1.42,1-1,1.49-1.6,1-1.14,1.55-1.78,1.1-1.31,1.63-2,1.18-1.48,1.84-2.35,1.32-1.74,2-2.67,1.49-2.07,2.19-3.09c.25-.35.5-.72.76-1.1l-3.72,0c-.63.9-1.22,1.73-1.78,2.5-.7,1-1.35,1.84-2,2.63S69.57,163,69,163.73s-1,1.24-1.55,1.87-1.06,1.23-1.52,1.74-1,1-1.42,1.53Z"/><path class="cls-1" d="M99.1,64.65h3.12c0-13.35,0-27.38,0-35.6,0-13.78,0-13.78-1.8-13.63l-1.77.14c-.73.06-1.76.15-3.16.34s-3.07.47-5.08.93c-1,.23-2.1.51-3.27.83s-2.4.68-3.62,1.05-2.42.77-3.71,1.21-2.41.84-3.59,1.29-2.11.81-3.08,1.21-2.11.88-3.14,1.33-2.13.95-3.15,1.43-2.16,1-3,1.46c-1.41.7-2.47,1.28-3.35,1.77s-1.56.92-2.23,1.33l-1.82,1.1V29.2h0v0h0v-.93c0-2.69,0-6.72,0-10.75h0V6.16h0v0h0a21.75,21.75,0,0,0-.18-4.65A1.79,1.79,0,0,0,55.12.06a2.55,2.55,0,0,0-1.48.13L52.38.54c-.39.11-.83.24-1.29.39l-1.22.38-1.14.38c-.5.17-1,.33-1.42.5l-1.39.53-1.38.56-1.46.62-1.65.72-1.57.72L38.43,6c-.4.19-.81.39-1.21.6-1.46.75-2.58,1.42-3.55,2l-.45.27-.69.42-.66.38-.58.33-.67.37a4.12,4.12,0,0,0-1.12.77,2.77,2.77,0,0,0-.69,1.49,9.39,9.39,0,0,0-.12,1.08c0,.32-.05.66-.09,1a4,4,0,0,1-.19.81,2.56,2.56,0,0,1-.23.47,4.43,4.43,0,0,1-.34.45,5.93,5.93,0,0,1-.43.44c-.15.14-.32.28-.48.41s-.52.41-.74.58l0,0a12.75,12.75,0,0,0-1.24,1c-.27.25-.54.54-.78.81s-.43.5-.6.69l-.07.09-.15.18c-.32.37-.51.63-.59,2.08-.07,1.2-.09,3.46-.1,8,0,10.06,0,23.73,0,32.18h3.13V47.69c0-6.65,0-13.13,0-17,0-8.15,0-8.11,0-8.13a1.58,1.58,0,0,0,.12-.15.81.81,0,0,1,.09-.1c.14-.18.33-.4.52-.62s.4-.43.6-.62.31-.27.47-.4l.54-.41,0,0,.82-.63c.21-.18.43-.37.63-.56h0a8.36,8.36,0,0,0,.66-.67,6.68,6.68,0,0,0,.63-.85,4.88,4.88,0,0,0,.49-1,6.08,6.08,0,0,0,.33-1.37A11,11,0,0,0,31.8,14l0-.46c0-.11,0-.21,0-.29l.27-.15.63-.35.69-.39.69-.41a11.84,11.84,0,0,0,1.14-.68c.43-.26.89-.54,1.52-.9s1.17-.66,1.86-1q.66-.35,1.2-.6l1.33-.64,1.52-.69,1.62-.71,1.39-.59,1.36-.55L48.42,5l1.34-.47,1.07-.35L52,3.82l1.28-.38.11,0c0,.65,0,1.54,0,2.74l0,5.5V23.37l0,5.94c0,2.09,0,3.2.06,3.78.14,1.22.52,1.76,1.17,1.93a2.19,2.19,0,0,0,1.74-.52c1.1-.65,2.53-1.67,3.62-2.2,1.27-.77,2.65-1.62,5.35-3,.88-.44,1.87-.92,2.93-1.42.91-.43,1.94-.89,3.09-1.4,1-.42,2-.86,3.08-1.3s2-.82,3-1.18c1.16-.43,2.34-.86,3.52-1.26s2.37-.79,3.59-1.17,2.42-.72,3.49-1,2.09-.55,3.07-.78l.11,0a50.72,50.72,0,0,1,7.76-1.2l.77-.07a66.48,66.48,0,0,0-.57,10.53V54c0,3.58,0,7.19,0,10.69Z"/><polygon class="cls-1" points="99.09 77.44 102.19 77.44 102.19 95.74 99.02 93.85 99.09 77.44"/><path class="cls-1" d="M68.13,139.74v-4.2c3.36-3.56,6.76-7.09,10.13-10.65H88.47v.84H78.63L69,135.87v3.87Z"/><polygon class="cls-1" points="79.95 125.08 85 117.41 85 125.31 84.14 125.31 84.14 120.28 80.67 125.53 79.95 125.08"/><rect class="cls-2" x="79.68" y="128.45" width="1.7" height="2.48"/><rect class="cls-2" x="76.61" y="130" width="0.76" height="2.25"/><rect class="cls-2" x="73.96" y="132.98" width="0.75" height="1.85"/><rect class="cls-2" x="70.9" y="136.15" width="0.96" height="1.78"/><path class="cls-1" d="M54.74,144.13c.35,0,1,0,2.08-.14s2.41-.24,3.63-.44,2.26-.41,3.82-.79,3.63-.91,5.44-1.47a48.23,48.23,0,0,0,5-1.87,48.89,48.89,0,0,0,4.64-2.31,28.61,28.61,0,0,0,4-2.75,30.15,30.15,0,0,0,3.37-3.16c1-1,1.77-2.08,2.46-2.95s1.27-1.6,1.92-2.33,1.35-1.49,2.06-2.16,1.43-1.26,2.1-1.81a23.71,23.71,0,0,1,2.41-1.72,37.61,37.61,0,0,1,4.21-2.31,40.63,40.63,0,0,1,4.48-1.75,22.61,22.61,0,0,1,4.27-1,36.29,36.29,0,0,1,4.81-.3c1.06,0,1.07.2.68,1.07s-1.19,2.46-1.77,3.74-1,2.28-1.59,3.74-1.54,3.37-2.34,5-1.49,3-2.18,4.33-1.38,2.51-2.1,3.69a30.55,30.55,0,0,1-2.3,3.33,29,29,0,0,1-2.4,2.6,10,10,0,0,1-2.2,1.72,20.3,20.3,0,0,1-3.27,1.48,7.6,7.6,0,0,1-2.39.47,9.53,9.53,0,0,1-2.1-.09c-.44-.1-.44-.27-.19-.47s.76-.45,1.34-.81,1.25-.8,2-1.32,1.48-1.12,2.36-1.89,1.86-1.73,2.85-2.72,2-2,2.9-3,1.66-2.08,2.48-3.18,1.7-2.26,2.49-3.37,1.49-2.15,2.34-3.53a27.45,27.45,0,0,0,2.23-4.24c.41-1.16.25-1.77-.14-2.23a3.14,3.14,0,0,0-1.76-.91,10.11,10.11,0,0,0-2.44-.07,13.24,13.24,0,0,0-3.55.59,27.24,27.24,0,0,0-5.24,2.35,18.27,18.27,0,0,0-4,3.12c-1.16,1.18-2.3,2.56-3.41,3.86s-2.19,2.55-3.13,3.57-1.78,1.84-2.7,2.68a36.26,36.26,0,0,1-3.12,2.53A32.75,32.75,0,0,1,79,139.17a33.64,33.64,0,0,1-4,1.73c-1.58.6-3.58,1.31-5.44,1.85s-3.6.94-5.17,1.26-3,.56-4.2.73-2.31.29-2.84.34-.54,0-.51.48.08,1.27.13,1.75.1.58.34.68.64.19,4.62.29,11.54.22,16.62.28,7.68.06,10.09,0,4.62-.25,6.18-.44a10.69,10.69,0,0,0,3.33-.83,11.33,11.33,0,0,0,2.65-1.73,20.19,20.19,0,0,0,2.77-3c1.06-1.36,2.32-3.2,3.2-4.48s1.41-2,1.73-2.4.44-.36.45-.18a3.52,3.52,0,0,1-.52,1.36c-.4.81-1.12,2.08-2,3.66a38.9,38.9,0,0,1-3.11,4.94,14.4,14.4,0,0,1-3.48,3.18,12.2,12.2,0,0,1-3.06,1.43,22.46,22.46,0,0,1-3.78.86,34,34,0,0,1-5.59.29c-2.36,0-5.3-.19-7.67-.34s-4.14-.27-6.28-.39-4.66-.22-7.73-.41-6.71-.48-8.53-.62-1.82-.14-2-1-.5-2.45-.66-3.33S54.39,144.18,54.74,144.13Z"/><path class="cls-1" d="M109.81,133.39c.21-.62.78-1.78,1.55-3.44s1.72-3.84,2.49-5.58,1.35-3,2-4.26,1.36-2.37,1.84-3.09a6.57,6.57,0,0,1,1-1.25c.27-.25.57-.46.77-.43s.28.29.13.87a12,12,0,0,1-1.09,2.4c-.53,1-1.21,2-1.94,3.32s-1.54,2.74-2.34,4.19-1.62,2.89-2.33,4.23-1.34,2.6-1.74,3.18S109.61,134,109.81,133.39Z"/><path class="cls-1" d="M103.05,122.1c.09.05.1.15.12,1s.06,2.54.09,3.45.07,1.07.17,1.18a.69.69,0,0,0,.46.18,1.84,1.84,0,0,0,.67-.07,2.66,2.66,0,0,0,.85-.44c.28-.21.55-.52.81-.69a.62.62,0,0,1,.61-.14c.12.08.12.27.07.45a1.55,1.55,0,0,1-.32.58,4.75,4.75,0,0,1-.85.9,5.69,5.69,0,0,1-1.53,1,3,3,0,0,1-1.77.21,5.94,5.94,0,0,1-1.86-.71,4.16,4.16,0,0,1-1.11-.92,3.13,3.13,0,0,1-.57-.91.68.68,0,0,1,0-.62c.08-.11.25-.11.43,0a3.12,3.12,0,0,1,.6.53,5.06,5.06,0,0,0,.6.62,1.69,1.69,0,0,0,.74.29,1.36,1.36,0,0,0,.71-.08.65.65,0,0,0,.39-.52,9.54,9.54,0,0,0,.07-1.57c0-.9.07-2.31.1-3s0-.71.14-.71A.83.83,0,0,1,103.05,122.1Z"/><path class="cls-1" d="M101.41,123.18h2.92c.72,0,.72,0,.71.07a1,1,0,0,1,0,.26.54.54,0,0,1-.2.27c-.11.07-.26.1-.85.12s-1.61,0-2.19,0-.74,0-.85-.12a.46.46,0,0,1-.19-.26.76.76,0,0,1,0-.27S100.68,123.18,101.41,123.18Z"/><path class="cls-1" d="M102.85,122.59a.62.62,0,1,0,0-1.23.62.62,0,1,0,0,1.23Z"/><rect class="cls-2" x="83.26" y="128.45" width="1.51" height="2.48"/><path class="cls-1" d="M115.4,114.82a34.73,34.73,0,0,0-4.4.25c-2.4-12.94-12.51-22.31-27.21-22.31a23.43,23.43,0,0,0-5.3.49l5.43-17.71h27V67.17H77.48L65.22,106.78c7.58-5.17,13.27-5.66,16.3-5.66,10.8,0,18.92,6.78,20.44,16.75l-.12,0c-.71.33-1.42.69-2.09,1.06s-1.52.87-2.12,1.25A23.71,23.71,0,0,0,95.22,122c-.67.55-1.39,1.14-2.1,1.81s-1.42,1.42-2.06,2.16-1.23,1.46-1.92,2.33-1.49,1.9-2.46,2.95a30.15,30.15,0,0,1-3.37,3.16,28.61,28.61,0,0,1-4,2.75,48.89,48.89,0,0,1-4.64,2.31c-1.25.55-2.48,1-3.83,1.5l-1.12.37c-1.81.56-3.88,1.1-5.44,1.47s-2.61.59-3.82.79l-.14,0c-1.19.19-2.5.34-3.49.42s-1.73.09-2.08.14-.37.16-.21,1,.49,2.51.66,3.33.16.83,2,1,5.46.42,8.53.62c2.57.16,4.75.26,6.65.35l1.08.06c2.14.12,3.92.25,6.28.39,1.37.09,2.94.18,4.47.25,1.11.05,2.21.08,3.2.09a34,34,0,0,0,5.59-.29,22.46,22.46,0,0,0,3.78-.86,12.2,12.2,0,0,0,3.06-1.43,14.4,14.4,0,0,0,3.48-3.18,38.9,38.9,0,0,0,3.11-4.94c.89-1.58,1.61-2.85,2-3.66a3.52,3.52,0,0,0,.52-1.36c0-.18-.13-.18-.45.18s-.84,1.11-1.73,2.4-2.14,3.12-3.2,4.48a20.19,20.19,0,0,1-2.77,3,11.54,11.54,0,0,1-2.65,1.73,10.69,10.69,0,0,1-3.33.83l-.58.06c-1.5.17-3.48.31-5.6.38-2.41.09-5,.09-10.09,0-3.36,0-7.79-.1-11.56-.17l-5.06-.11c-4-.1-4.39-.19-4.62-.29s-.29-.2-.34-.68-.11-1.33-.13-1.75,0-.43.51-.48,1.61-.16,2.84-.34l1.2-.18c.92-.15,1.92-.33,3-.55,1.57-.32,3.3-.71,5.17-1.26,1-.29,2-.62,3-1s1.7-.6,2.44-.88a33.64,33.64,0,0,0,4-1.73,32.75,32.75,0,0,0,3.76-2.35,36.26,36.26,0,0,0,3.12-2.53c.92-.83,1.74-1.65,2.7-2.68s2-2.26,3.13-3.57,2.25-2.68,3.41-3.86a18.27,18.27,0,0,1,4-3.12c.31-.18.63-.36,1-.53a27.37,27.37,0,0,1,4.28-1.82,13.24,13.24,0,0,1,3.55-.59l.77,0a7.43,7.43,0,0,1,1.67.1,3.14,3.14,0,0,1,1.76.91c.39.46.55,1.07.14,2.23a27.91,27.91,0,0,1-2.23,4.24c-.4.65-.77,1.23-1.12,1.77s-.8,1.18-1.22,1.76c-.79,1.11-1.67,2.26-2.49,3.37s-1.59,2.15-2.48,3.18-1.9,2.06-2.9,3-2,1.94-2.85,2.72-1.65,1.37-2.36,1.89-1.38,1-2,1.32-1.08.6-1.34.81-.25.37.19.47a9.53,9.53,0,0,0,2.1.09,7.6,7.6,0,0,0,2.39-.47,20.3,20.3,0,0,0,3.27-1.48,10,10,0,0,0,2.2-1.72,29,29,0,0,0,2.4-2.6,30.55,30.55,0,0,0,2.3-3.33l.32-.52c.61-1,1.19-2.06,1.78-3.17.69-1.3,1.39-2.68,2.18-4.33s1.7-3.56,2.34-5,1-2.45,1.59-3.74,1.38-2.86,1.77-3.74S116.46,114.86,115.4,114.82Z"/><path class="cls-1" d="M115.85,120.11c-.65,1.23-1.23,2.52-2,4.26s-1.73,3.91-2.49,5.58-1.34,2.82-1.55,3.44,0,.72.35.14,1-1.84,1.74-3.18,1.52-2.77,2.33-4.23,1.6-2.92,2.34-4.19,1.4-2.35,1.94-3.32a12,12,0,0,0,1.09-2.4c.15-.58.06-.84-.13-.87s-.5.18-.77.43a6.57,6.57,0,0,0-1,1.25C117.21,117.74,116.5,118.89,115.85,120.11Z"/><path class="cls-1" d="M88.81,124.89v1.17h-10L69.33,136v4.07H67.8v-4.64l.09-.1c1.65-1.75,3.34-3.52,5-5.28s3.4-3.56,5.1-5.37l.1-.1h1.78l5.45-8.27v8.27h3.47v.32Zm-7.1-.32H83.8v-3.18Z"/><polygon class="cls-1" points="84.77 128.45 83.26 128.45 83.26 130.93 83.66 130.93 84.77 130.93 84.77 129.88 84.77 128.45"/><rect class="cls-2" x="79.68" y="128.45" width="1.7" height="2.48"/><rect class="cls-2" x="76.61" y="130" width="0.76" height="2.25"/><rect class="cls-2" x="73.96" y="132.98" width="0.75" height="1.85"/><rect class="cls-2" x="70.9" y="136.15" width="0.96" height="1.78"/></svg>